<svg xmlns="http://www.w3.org/2000/svg" viewBox="0 0 800 314">
  <rect x="1" y="1" width="798" height="312" rx="10" fill="#1A1A2E" stroke="#05D9FF" stroke-width="2"/>
  <rect x="2" y="2" width="796" height="38" rx="9" fill="#16213E"/>
  <rect x="2" y="30" width="796" height="10" fill="#16213E"/>
  <line x1="2" y1="40" x2="798" y2="40" stroke="#05D9FF" stroke-opacity="0.3"/>
  <circle cx="24" cy="21" r="6" fill="#FF5F56"/>
  <circle cx="44" cy="21" r="6" fill="#FFBD2E"/>
  <circle cx="64" cy="21" r="6" fill="#27C93F"/>
  <text x="88" y="25" font-family="Consolas,Monaco,'Courier New',monospace" font-size="13" fill="#05D9FF">robin@zushi: ~/ ls tech-stack/</text>

  <!-- ══ FRONT-END ══ -->
  <text x="30" y="68" font-family="Consolas,Monaco,'Courier New',monospace" font-size="12" fill="#05D9FF" font-weight="bold">Front-End</text>

  <!-- HTML5 w=78 -->
  <rect x="30" y="80" width="78" height="28" rx="4" fill="#E34F26"/>
  <g transform="translate(38,86) scale(0.667)"><path fill="white" d="M1.5 0h21l-1.91 21.563L11.977 24l-8.564-2.438zm7.031 9.75l-.232-2.718l10.059.003l.23-2.622L5.412 4.41l.698 8.01h9.126l-.326 3.426l-2.91.804l-2.955-.81l-.188-2.11H6.248l.33 4.171L12 19.351l5.379-1.443l.744-8.157z"/></g>
  <text x="60" y="98" font-family="Verdana,sans-serif" font-size="12" fill="white">HTML5</text>

  <!-- CSS3 w=68 -->
  <rect x="116" y="80" width="68" height="28" rx="4" fill="#1572B6"/>
  <g transform="translate(124,86) scale(0.667)"><path fill="white" d="M1.5 0h21l-1.91 21.563L11.977 24l-8.565-2.438zm17.09 4.413L5.41 4.41l.213 2.622l10.125.002l-.255 2.716h-6.64l.24 2.573h6.182l-.366 3.523l-2.91.804l-2.956-.81l-.188-2.11h-2.61l.29 3.855L12 19.288l5.373-1.53z"/></g>
  <text x="146" y="98" font-family="Verdana,sans-serif" font-size="12" fill="white">CSS3</text>

  <!-- JavaScript w=99 -->
  <rect x="192" y="80" width="99" height="28" rx="4" fill="#F7DF1E"/>
  <g transform="translate(200,86) scale(0.667)"><path fill="black" d="M0 0h24v24H0zm22.034 18.276c-.175-1.095-.888-2.015-3.003-2.873c-.736-.345-1.554-.585-1.797-1.14c-.091-.33-.105-.51-.046-.705c.15-.646.915-.84 1.515-.66c.39.12.75.42.976.9c1.034-.676 1.034-.676 1.755-1.125c-.27-.42-.404-.601-.586-.78c-.63-.705-1.469-1.065-2.834-1.034l-.705.089c-.676.165-1.32.525-1.71 1.005c-1.14 1.291-.811 3.541.569 4.471c1.365 1.02 3.361 1.244 3.616 2.205c.24 1.17-.87 1.545-1.966 1.41c-.811-.18-1.26-.586-1.755-1.336l-1.83 1.051c.21.48.45.689.81 1.109c1.74 1.756 6.09 1.666 6.871-1.004c.029-.09.24-.705.074-1.65zm-8.983-7.245h-2.248c0 1.938-.009 3.864-.009 5.805c0 1.232.063 2.363-.138 2.711c-.33.689-1.18.601-1.566.48c-.396-.196-.597-.466-.83-.855c-.063-.105-.11-.196-.127-.196l-1.825 1.125c.305.63.75 1.172 1.324 1.517c.855.51 2.004.675 3.207.405c.783-.226 1.458-.691 1.811-1.411c.51-.93.402-2.07.397-3.346c.012-2.054 0-4.109 0-6.179z"/></g>
  <text x="222" y="98" font-family="Verdana,sans-serif" font-size="12" fill="black">JavaScript</text>

  <!-- TypeScript w=101 -->
  <rect x="299" y="80" width="101" height="28" rx="4" fill="#3178C6"/>
  <g transform="translate(307,86) scale(0.667)"><path fill="white" d="M1.125 0C.502 0 0 .502 0 1.125v21.75C0 23.498.502 24 1.125 24h21.75c.623 0 1.125-.502 1.125-1.125V1.125C24 .502 23.498 0 22.875 0zm17.363 9.75q.918 0 1.627.111a6.4 6.4 0 0 1 1.306.34v2.458a4 4 0 0 0-.643-.361a5 5 0 0 0-.717-.26a5.5 5.5 0 0 0-1.426-.2q-.45 0-.819.086a2.1 2.1 0 0 0-.623.242q-.254.156-.393.374a.9.9 0 0 0-.14.49q0 .294.156.529q.156.234.443.444c.287.21.423.276.696.41q.41.203.926.416q.705.296 1.266.628q.561.333.963.753q.402.418.614.957q.213.538.214 1.253q0 .986-.373 1.656a3 3 0 0 1-1.012 1.085a4.4 4.4 0 0 1-1.487.596q-.85.18-1.79.18a10 10 0 0 1-1.84-.164a5.5 5.5 0 0 1-1.512-.493v-2.63a5.03 5.03 0 0 0 3.237 1.2q.5 0 .872-.09q.373-.09.623-.25q.249-.162.373-.38a1.02 1.02 0 0 0-.074-1.089a2.1 2.1 0 0 0-.537-.5a5.6 5.6 0 0 0-.807-.444a28 28 0 0 0-1.007-.436q-1.377-.575-2.053-1.405t-.676-2.005q0-.92.369-1.582q.368-.662 1.004-1.089a4.5 4.5 0 0 1 1.47-.629a7.5 7.5 0 0 1 1.77-.201m-15.113.188h9.563v2.166H9.506v9.646H6.789v-9.646H3.375z"/></g>
  <text x="329" y="98" font-family="Verdana,sans-serif" font-size="12" fill="white">TypeScript</text>

  <!-- React w=71 -->
  <rect x="408" y="80" width="71" height="28" rx="4" fill="#61DAFB"/>
  <g transform="translate(416,86) scale(0.667)"><path fill="black" d="M14.23 12.004a2.236 2.236 0 0 1-2.235 2.236 2.236 2.236 0 0 1-2.236-2.236 2.236 2.236 0 0 1 2.235-2.236 2.236 2.236 0 0 1 2.236 2.236zm2.648-10.69c-1.346 0-3.107.96-4.888 2.622-1.78-1.653-3.542-2.602-4.887-2.602-.41 0-.783.093-1.106.278-1.375.793-1.683 3.264-.973 6.365C1.98 8.917 0 10.42 0 12.004c0 1.59 1.99 3.097 5.043 4.03-.704 3.113-.39 5.588.988 6.38.32.187.69.275 1.102.275 1.345 0 3.107-.96 4.888-2.624 1.78 1.654 3.542 2.603 4.887 2.603.41 0 .783-.09 1.106-.275 1.374-.792 1.683-3.263.973-6.365C22.02 15.096 24 13.59 24 12.004c0-1.59-1.99-3.097-5.043-4.032.704-3.11.39-5.587-.988-6.38-.318-.184-.688-.277-1.092-.278zm-.005 1.09v.006c.225 0 .406.044.558.127.666.382.955 1.835.73 3.704-.054.46-.142.945-.25 1.44-.96-.236-2.006-.417-3.107-.534-.66-.905-1.345-1.727-2.035-2.447 1.592-1.48 3.087-2.292 4.105-2.295zm-9.77.02c1.012 0 2.514.808 4.11 2.28-.686.72-1.37 1.537-2.02 2.442-1.107.117-2.154.298-3.113.538-.112-.49-.195-.964-.254-1.42-.23-1.868.054-3.32.714-3.707.19-.09.4-.127.563-.132zm4.882 3.05c.455.468.91.992 1.36 1.564-.44-.02-.89-.034-1.345-.034-.46 0-.915.01-1.36.034.44-.572.895-1.096 1.345-1.565zM12 8.1c.74 0 1.477.034 2.202.093.406.582.802 1.203 1.183 1.86.372.64.71 1.29 1.018 1.946-.308.655-.646 1.31-1.013 1.95-.38.66-.773 1.288-1.18 1.87-.728.063-1.466.098-2.21.098-.74 0-1.477-.035-2.202-.093-.406-.582-.802-1.204-1.183-1.86-.372-.64-.71-1.29-1.018-1.946.303-.657.646-1.313 1.013-1.954.38-.66.773-1.286 1.18-1.868.728-.064 1.466-.098 2.21-.098zm-3.635.254c-.24.377-.48.763-.704 1.16-.225.39-.435.782-.635 1.174-.265-.656-.49-1.31-.676-1.947.64-.15 1.315-.283 2.015-.386zm7.26 0c.695.103 1.365.23 2.006.387-.18.632-.405 1.282-.66 1.933-.2-.39-.41-.783-.64-1.174-.225-.392-.465-.774-.705-1.146zm3.063.675c.484.15.944.317 1.375.498 1.732.74 2.852 1.708 2.852 2.476-.005.768-1.125 1.74-2.857 2.475-.42.18-.88.342-1.355.493-.28-.958-.646-1.956-1.1-2.98.45-1.017.81-2.01 1.085-2.964zm-13.395.004c.278.96.645 1.957 1.1 2.98-.45 1.017-.812 2.01-1.086 2.964-.484-.15-.944-.318-1.37-.5-1.732-.737-2.852-1.706-2.852-2.474 0-.768 1.12-1.742 2.852-2.476.42-.18.88-.342 1.356-.494zm11.678 4.28c.265.657.49 1.312.676 1.948-.64.157-1.316.29-2.016.39.24-.375.48-.762.705-1.158.225-.39.435-.788.636-1.18zm-9.945.02c.2.392.41.783.64 1.175.23.39.465.772.705 1.143-.695-.102-1.365-.23-2.006-.386.18-.63.406-1.282.66-1.933zM17.92 16.32c.112.493.2.968.254 1.423.23 1.868-.054 3.32-.714 3.708-.147.09-.338.128-.563.128-1.012 0-2.514-.807-4.11-2.28.686-.72 1.37-1.536 2.02-2.44 1.107-.118 2.154-.3 3.113-.54zm-11.83.01c.96.234 2.006.415 3.107.532.66.905 1.345 1.727 2.035 2.446-1.595 1.483-3.092 2.295-4.11 2.295-.22-.005-.406-.05-.553-.132-.666-.38-.955-1.834-.73-3.703.054-.46.142-.944.25-1.438zm4.56.64c.44.02.89.034 1.345.034.46 0 .915-.01 1.36-.034-.44.572-.895 1.095-1.345 1.565-.455-.47-.91-.993-1.36-1.565z"/></g>
  <text x="438" y="98" font-family="Verdana,sans-serif" font-size="12" fill="black">React</text>

  <!-- Vue.js w=74 -->
  <rect x="487" y="80" width="74" height="28" rx="4" fill="#4FC08D"/>
  <g transform="translate(495,86) scale(0.667)"><path fill="white" d="M24 1.61h-9.94L12 5.16L9.94 1.61H0l12 20.78ZM12 14.08L5.16 2.23h4.43L12 6.41l2.41-4.18h4.43Z"/></g>
  <text x="517" y="98" font-family="Verdana,sans-serif" font-size="12" fill="white">Vue.js</text>

  <!-- Vuetify w=80 -->
  <rect x="569" y="80" width="80" height="28" rx="4" fill="#1867C0"/>
  <g transform="translate(577,86) scale(0.667)"><path fill="white" d="M6.312 12.564L12.636 1.2H0zM14.94 1.2L7.464 14.64L12 22.8L24 1.2zm4.98 2.4L12 17.856l-1.788-3.216L16.344 3.6zM6.312 7.62L4.08 3.6h4.476z"/></g>
  <text x="599" y="98" font-family="Verdana,sans-serif" font-size="12" fill="white">Vuetify</text>

  <!-- SASS w=68 -->
  <rect x="657" y="80" width="68" height="28" rx="4" fill="#CC6699"/>
  <g transform="translate(665,86) scale(0.667)"><path fill="white" d="M12 0c6.627 0 12 5.373 12 12s-5.373 12-12 12S0 18.627 0 12 5.373 0 12 0zM9.615 15.998c.175.645.156 1.248-.024 1.792l-.065.18c-.024.061-.052.12-.078.176-.14.29-.326.56-.555.81-.698.759-1.672 1.047-2.09.805-.45-.262-.226-1.335.584-2.19.871-.918 2.12-1.509 2.12-1.509v-.003l.108-.061zm9.911-10.861c-.542-2.133-4.077-2.834-7.422-1.645-1.989.707-4.144 1.818-5.693 3.267C4.568 8.48 4.275 9.98 4.396 10.607c.427 2.211 3.457 3.657 4.703 4.73v.006c-.367.18-3.056 1.529-3.686 2.925-.675 1.47.105 2.521.615 2.655 1.575.436 3.195-.36 4.065-1.649.84-1.261.766-2.881.404-3.676.496-.135 1.08-.195 1.83-.104 2.101.24 2.521 1.56 2.43 2.1-.09.539-.523.854-.674.944-.15.091-.195.12-.181.181.015.09.091.09.21.075.165-.03 1.096-.45 1.141-1.471.045-1.29-1.186-2.729-3.375-2.7-.9.016-1.471.091-1.875.256-.03-.045-.061-.075-.105-.105-1.35-1.455-3.855-2.475-3.75-4.41.03-.705.285-2.564 4.8-4.814 3.705-1.846 6.661-1.335 7.171-.21.733 1.604-1.576 4.59-5.431 5.024-1.47.165-2.235-.404-2.431-.615-.209-.225-.239-.24-.314-.194-.12.06-.045.255 0 .375.12.3.585.825 1.396 1.095.704.225 2.43.359 4.5-.45 2.324-.899 4.139-3.405 3.614-5.505l.073.067z"/></g>
  <text x="687" y="98" font-family="Verdana,sans-serif" font-size="12" fill="white">SASS</text>

  <!-- ══ BACK-END ══ -->
  <text x="30" y="132" font-family="Consolas,Monaco,'Courier New',monospace" font-size="12" fill="#05D9FF" font-weight="bold">Back-End</text>

  <!-- Rails w=68 -->
  <rect x="30" y="144" width="68" height="28" rx="4" fill="#D30001"/>
  <g transform="translate(38,150) scale(0.667)"><path fill="white" d="M.741 19.365h8.36s-1.598-7.291 3.693-10.243l.134-.066c1.286-.637 4.907-2.431 10.702 1.854c.19-.159.37-.286.37-.286s-5.503-5.492-11.63-4.878c-3.079.275-6.867 3.079-9.09 6.783S.741 19.365.741 19.365"/></g>
  <text x="60" y="162" font-family="Verdana,sans-serif" font-size="12" fill="white">Rails</text>

  <!-- Ruby w=67 -->
  <rect x="106" y="144" width="67" height="28" rx="4" fill="#CC342D"/>
  <g transform="translate(114,150) scale(0.667)"><path fill="white" d="M20.156.083c3.033.525 3.893 2.598 3.829 4.77L24 4.822 22.635 22.71 4.89 23.926h.016C3.433 23.864.15 23.729 0 19.139l1.645-3 2.819 6.586.503 1.172 2.805-9.144-.03.007.016-.03 9.255 2.956-1.396-5.431-.99-3.9 8.82-.569-.615-.51L16.5 2.114 20.159.073l-.003.01zM0 19.089zM5.13 5.073c3.561-3.533 8.157-5.621 9.922-3.84 1.762 1.777-.105 6.105-3.673 9.636-3.563 3.532-8.103 5.734-9.864 3.957-1.766-1.777.045-6.217 3.612-9.75l.003-.003z"/></g>
  <text x="136" y="162" font-family="Verdana,sans-serif" font-size="12" fill="white">Ruby</text>

  <!-- PHP w=60 (full icon with php letters) -->
  <rect x="181" y="144" width="60" height="28" rx="4" fill="#777BB4"/>
  <g transform="translate(189,150) scale(0.667)"><path fill="white" d="M7.01 10.207h-.944l-.515 2.648h.838q.834 0 1.242-.314q.408-.315.55-1.049q.137-.705-.124-.995q-.262-.29-1.047-.29M12 5.688C5.373 5.688 0 8.514 0 12s5.373 6.313 12 6.313S24 15.486 24 12s-5.373-6.312-12-6.312m-3.26 7.451c-.261.25-.575.438-.917.551q-.505.163-1.285.164H5.357l-.327 1.681H3.652l1.23-6.326h2.65q1.195 0 1.744.628q.549.627.33 1.752a2.8 2.8 0 0 1-.305.847q-.215.383-.561.703m4.024.715l.543-2.799q.094-.478-.068-.651q-.16-.174-.687-.174H11.46l-.704 3.625H9.388l1.23-6.327h1.367l-.327 1.682h1.218q1.15 0 1.586.401c.436.401.378.7.263 1.299l-.572 2.944zm7.597-2.265a2.8 2.8 0 0 1-.305.847q-.214.383-.561.703a2.44 2.44 0 0 1-.917.551q-.504.163-1.286.164h-1.18l-.327 1.682h-1.378l1.23-6.326h2.649q1.195 0 1.744.628q.55.626.331 1.751m-2.595-1.382h-.943l-.516 2.648h.838q.835 0 1.242-.314q.407-.315.551-1.049q.137-.705-.125-.995c-.262-.29-.524-.29-1.047-.29"/></g>
  <text x="211" y="162" font-family="Verdana,sans-serif" font-size="12" fill="white">PHP</text>

  <!-- MySQL w=78 (devicon dolphin 128x128) -->
  <rect x="249" y="144" width="78" height="28" rx="4" fill="#4479A1"/>
  <g transform="translate(257,150) scale(0.125)"><path fill="white" d="M125.477 122.783l-2.616-2.537c-2.479-3.292-5.668-6.184-9.015-8.585c-2.669-1.916-8.661-4.504-9.775-7.609l-.205-.195c1.893-.214 4.103-.898 5.85-1.367c2.934-.786 5.356-.583 8.386-1.365c1.366-.39 2.899-.781 3.899-1.171v-.78c-1-1.571-2.427-3.651-4.097-5.073c-4.369-3.72-9.041-7.437-13.951-10.537c-2.723-1.718-6.041-2.835-8.926-4.292c-.971-.491-2.652-.746-3.294-1.562c-1.517-1.932-2.328-4.382-3.498-6.633c-2.449-4.717-4.849-9.868-7.019-14.831c-1.48-3.384-2.443-6.72-4.289-9.756c-8.86-14.567-18.395-23.358-33.167-32c-3.145-1.838-6.929-2.563-10.929-3.513c-2.144-.129-4.291-.26-6.437-.391c-1.311-.546-2.674-2.149-3.902-2.927c-4.896-3.092-17.449-9.817-21.074-.975c-2.289 5.581 3.42 11.025 5.462 13.854c1.435 1.982 3.27 4.207 4.293 6.438c.675 1.467.79 2.938 1.367 4.489c1.418 3.822 2.651 7.98 4.487 11.511c.927 1.788 1.949 3.67 3.122 5.268c.718.981 1.95 1.413 2.145 2.927c-1.204 1.686-1.273 4.304-1.95 6.44c-3.05 9.615-1.898 21.567 2.537 28.683c1.36 2.186 4.566 6.871 8.975 5.073c3.856-1.57 3.226-6.438 4.329-10.732c.249-.972-.185-1.688.815-2.341v.195a128.6 128.6 0 0 0 3.282 7.024c2.6 4.187 6.889 8.562 10.798 11.514c2.027 1.531 3.92 4.177 5.92 5.073v-.101h.221c-.507-1-1.302-1.167-1.95-1.804c-1.527-1.496-3.226-3.382-4.487-5.097c-3.556-4.827-6.698-10.122-9.561-15.622c-1.368-2.626-2.557-5.529-3.709-8.201c-.443-1.03-.438-2.592-1.364-3.125c-1.263 1.958-3.122 3.54-4.099 5.853c-1.561 3.696-1.762 8.204-2.341 12.877c-.343.122-.19.038-.391.194c-2.718-.655-3.672-3.452-4.683-5.853c-2.555-6.07-3.029-15.843-.781-22.829c.582-1.809 3.211-7.501 2.146-9.172c-.508-1.665-2.184-2.63-3.121-3.903c-1.161-1.574-2.319-3.646-3.123-5.464c-2.091-4.731-3.066-10.044-5.268-14.828c-1.053-2.287-2.832-4.602-4.293-6.634c-1.617-2.253-3.429-3.912-4.684-6.635c-.445-.968-1.051-2.518-.39-3.513c.21-.671.507-.951 1.171-1.17c1.133-.873 4.283.29 5.463.779c3.129 1.3 5.741 2.5 8.392 4.256c1.271.844 2.559 1.89 4.097 2.89h1.756c2.747 0 5.824.232 8.391 1.012c4.535 1.379 8.6 3.542 12.292 5.873c11.246 7.102 20.441 17.22 26.732 29.278c1.012 1.942 1.45 3.799 2.341 5.858c1.798 4.153 4.064 8.428 5.853 12.489c1.786 4.053 3.526 8.142 6.05 11.514c1.327 1.772 6.451 2.724 8.78 3.709c1.633.689 4.308 1.409 5.854 2.34c2.953 1.782 5.814 3.904 8.586 5.855c1.384.974 5.64 3.114 5.853 4.878c-6.863-.188-12.104.452-16.585 2.341c-1.273.537-3.305.552-3.513 2.147c.7.733.809 1.829 1.365 2.731c1.069 1.73 2.876 4.052 4.488 5.268c1.762 1.33 3.576 2.751 5.464 3.902c3.359 2.047 7.107 3.217 10.341 5.268c1.906 1.21 3.958 2.733 5.815 4.097c.92.675.891 1.724 2.891 2.147v-.194c-.999-.795-.946-1.893-1.522-2.728zM29.514 23.465c-1.431-.027-2.514.157-3.514.389V24h.198c.683 1 1.888 2.33 2.731 3.538l1.952 4.108l.193-.187c1.209-.853 1.763-2.211 1.756-4.291c-.483-.509-.556-1.146-.974-1.754c-.558-.809-1.639-1.268-2.342-1.949z"/></g>
  <text x="279" y="162" font-family="Verdana,sans-serif" font-size="12" fill="white">MySQL</text>

  <!-- PostgreSQL w=104 (full simple-icons elephant) -->
  <rect x="335" y="144" width="104" height="28" rx="4" fill="#4169E1"/>
  <g transform="translate(343,150) scale(0.667)"><path fill="white" d="M23.56 14.723a.5.5 0 0 0-.057-.12q-.21-.395-1.007-.231c-1.654.34-2.294.13-2.526-.02c1.342-2.048 2.445-4.522 3.041-6.83c.272-1.05.798-3.523.122-4.73a1.6 1.6 0 0 0-.15-.236C21.693.91 19.8.025 17.51.001c-1.495-.016-2.77.346-3.116.479a10 10 0 0 0-.516-.082a8 8 0 0 0-1.312-.127c-1.182-.019-2.203.264-3.05.84C8.66.79 4.729-.534 2.296 1.19C.935 2.153.309 3.873.43 6.304c.041.818.507 3.334 1.243 5.744q.69 2.26 1.433 3.582q.83 1.493 1.714 1.79c.448.148 1.133.143 1.858-.729a56 56 0 0 1 1.945-2.206c.435.235.906.362 1.39.377v.004a11 11 0 0 0-.247.305c-.339.43-.41.52-1.5.745c-.31.064-1.134.233-1.146.811a.6.6 0 0 0 .091.327c.227.423.922.61 1.015.633c1.335.333 2.505.092 3.372-.679c-.017 2.231.077 4.418.345 5.088c.221.553.762 1.904 2.47 1.904q.375.001.829-.094c1.782-.382 2.556-1.17 2.855-2.906c.15-.87.402-2.875.539-4.101c.017-.07.036-.12.057-.136c0 0 .07-.048.427.03l.044.007l.254.022l.015.001c.847.039 1.911-.142 2.531-.43c.644-.3 1.806-1.033 1.595-1.67M2.37 11.876c-.744-2.435-1.178-4.885-1.212-5.571c-.109-2.172.417-3.683 1.562-4.493c1.837-1.299 4.84-.54 6.108-.13l-.01.01C6.795 3.734 6.843 7.226 6.85 7.44c0 .082.006.199.016.36c.034.586.1 1.68-.074 2.918c-.16 1.15.194 2.276.973 3.089q.12.126.252.237c-.347.371-1.1 1.193-1.903 2.158c-.568.682-.96.551-1.088.508c-.392-.13-.813-.587-1.239-1.322c-.48-.839-.963-2.032-1.415-3.512m6.007 5.088a1.6 1.6 0 0 1-.432-.178c.089-.039.237-.09.483-.14c1.284-.265 1.482-.451 1.915-1a8 8 0 0 1 .367-.443a.4.4 0 0 0 .074-.13c.17-.151.272-.11.436-.042c.156.065.308.26.37.475c.03.102.062.295-.045.445c-.904 1.266-2.222 1.25-3.168 1.013m2.094-3.988l-.052.14c-.133.357-.257.689-.334 1.004c-.667-.002-1.317-.288-1.81-.803c-.628-.655-.913-1.566-.783-2.5c.183-1.308.116-2.447.08-3.059l-.013-.22c.296-.262 1.666-.996 2.643-.772c.446.102.718.406.83.928c.585 2.704.078 3.83-.33 4.736a9 9 0 0 0-.23.546m7.364 4.572q-.024.266-.062.596l-.146.438a.4.4 0 0 0-.018.108c-.006.475-.054.649-.115.87a4.8 4.8 0 0 0-.18 1.057c-.11 1.414-.878 2.227-2.417 2.556c-1.515.325-1.784-.496-2.02-1.221a7 7 0 0 0-.078-.227c-.215-.586-.19-1.412-.157-2.555c.016-.561-.025-1.901-.33-2.646q.006-.44.019-.892a.4.4 0 0 0-.016-.113a2 2 0 0 0-.044-.208c-.122-.428-.42-.786-.78-.935c-.142-.059-.403-.167-.717-.087c.067-.276.183-.587.309-.925l.053-.142c.06-.16.134-.325.213-.5c.426-.948 1.01-2.246.376-5.178c-.237-1.098-1.03-1.634-2.232-1.51c-.72.075-1.38.366-1.709.532a6 6 0 0 0-.196.104c.092-1.106.439-3.174 1.736-4.482a4 4 0 0 1 .303-.276a.35.35 0 0 0 .145-.064c.752-.57 1.695-.85 2.802-.833q.616.01 1.174.081c1.94.355 3.244 1.447 4.036 2.383c.814.962 1.255 1.931 1.431 2.454c-1.323-.134-2.223.127-2.68.78c-.992 1.418.544 4.172 1.282 5.496c.135.242.252.452.289.54c.24.583.551.972.778 1.256c.07.087.138.171.189.245c-.4.116-1.12.383-1.055 1.717a35 35 0 0 1-.084.815c-.046.208-.07.46-.1.766m.89-1.621c-.04-.832.27-.919.597-1.01l.135-.041a1 1 0 0 0 .134.103c.57.376 1.583.421 3.007.134c-.202.177-.519.4-.953.601c-.41.19-1.096.333-1.747.364c-.72.034-1.086-.08-1.173-.151m.57-9.271a7 7 0 0 1-.105 1.001c-.055.358-.112.728-.127 1.177c-.014.436.04.89.093 1.33c.107.887.216 1.8-.207 2.701a4 4 0 0 1-.188-.385a8 8 0 0 0-.325-.617c-.616-1.104-2.057-3.69-1.32-4.744c.38-.543 1.342-.566 2.179-.463m.228 7.013l-.085-.107l-.035-.044c.726-1.2.584-2.387.457-3.439c-.052-.432-.1-.84-.088-1.222c.013-.407.066-.755.118-1.092c.064-.415.13-.844.111-1.35a.6.6 0 0 0 .012-.19c-.046-.486-.6-1.938-1.73-3.253a7.8 7.8 0 0 0-2.688-2.04A9.3 9.3 0 0 1 17.62.746c2.052.046 3.675.814 4.824 2.283a1 1 0 0 1 .067.1c.723 1.356-.276 6.275-2.987 10.54m-8.816-6.116c-.025.18-.31.423-.621.423l-.081-.006a.8.8 0 0 1-.506-.315c-.046-.06-.12-.178-.106-.285a.22.22 0 0 1 .093-.149c.118-.089.352-.122.61-.086c.316.044.642.193.61.418m7.93-.411c.011.08-.049.2-.153.31a.72.72 0 0 1-.408.223l-.075.005c-.293 0-.541-.234-.56-.371c-.024-.177.264-.31.56-.352c.298-.042.612.009.636.185"/></g>
  <text x="365" y="162" font-family="Verdana,sans-serif" font-size="12" fill="white">PostgreSQL</text>

  <!-- Redis w=70 (devicon cube stack 128x128) -->
  <rect x="447" y="144" width="70" height="28" rx="4" fill="#DC382D"/>
  <g transform="translate(455,150) scale(0.125)"><path fill="white" d="M6.2 52.7c6.7 3.2 43.7 18.1 49.5 20.9s10 2.8 17.4-1c7.4-3.9 42.2-18.1 48.9-21.6c3.4-1.8 4.9-3.2 4.9-4.4V34.1c0-1.3-1.7-2.4-5-3.6c-6.5-2.4-41.1-16.1-47.7-18.6c-6.6-2.4-9.3-2.3-17.1.5S12.6 29.6 6 32.2c-3.2 1.3-5 2.4-5 3.7H.8v12.7c.2 1.2 2.1 2.5 5.4 4.1m60.4 1.8l-20.3-8.4l29.1-4.5zm44.1-20l-17.2 6.8l-1.9.7l-17.2-6.8l19.1-7.5zM60.1 22l-2.8-5.2l8.8 3.4l8.3-2.7l-2.2 5.4l8.4 3.2l-10.9 1.1l-2.4 5.9l-3.9-6.5l-12.6-1.1zm-21.7 7.3c8.6 0 15.6 2.7 15.6 6s-7 6-15.6 6s-15.6-2.7-15.6-6s7-6 15.6-6M122 59.8c-6.7 3.5-41.4 17.8-48.8 21.6c-7.4 3.9-11.5 3.8-17.3 1s-43-17.7-49.6-20.9C2.9 59.9 1 58.6 1 57.3V70c0 1.3 1.9 2.6 5.2 4.2c6.7 3.2 43.7 18.1 49.5 20.9s10 2.8 17.4-1c7.4-3.9 42.2-18.1 48.9-21.6c3.4-1.8 4.9-3.2 4.9-4.4V55.6c0 1.1-1.6 2.5-4.9 4.2m0 20.7c-6.7 3.5-41.4 17.8-48.8 21.6c-7.4 3.9-11.5 3.8-17.3 1s-43-17.7-49.6-20.9C2.9 80.7 1 79.3 1 78v12.7c0 1.3 1.9 2.6 5.2 4.2c6.7 3.2 43.7 18.1 49.5 20.9s10 2.8 17.4-1c7.4-3.9 42.2-18.1 48.9-21.6c3.4-1.8 4.9-3.2 4.9-4.4V76.3c0 1.2-1.6 2.5-4.9 4.2"/></g>
  <text x="477" y="162" font-family="Verdana,sans-serif" font-size="12" fill="white">Redis</text>

  <!-- ══ DESIGN ══ -->
  <text x="30" y="196" font-family="Consolas,Monaco,'Courier New',monospace" font-size="12" fill="#05D9FF" font-weight="bold">Design</text>

  <!-- Illustrator w=97 -->
  <rect x="30" y="208" width="97" height="28" rx="4" fill="#FF9A00"/>
  <g transform="translate(38,214) scale(0.667)"><path fill="white" d="M10.53 10.73c-.1-.31-.19-.61-.29-.92s-.19-.6-.27-.89c-.08-.28-.15-.54-.22-.78h-.02c-.09.43-.2.86-.34 1.29c-.15.48-.3.98-.46 1.48c-.14.51-.29.98-.44 1.4h2.54c-.06-.211-.14-.46-.23-.721c-.09-.269-.18-.559-.27-.859M19.75.3H4.25C1.9.3 0 2.2 0 4.55v14.9c0 2.35 1.9 4.25 4.25 4.25h15.5c2.35 0 4.25-1.9 4.25-4.25V4.55C24 2.2 22.1.3 19.75.3M14.7 16.83h-2.091c-.069.01-.139-.04-.159-.11l-.82-2.38H7.91l-.76 2.35c-.02.09-.1.15-.19.141H5.08c-.11 0-.14-.061-.11-.18L8.19 7.38c.03-.1.06-.21.1-.33c.04-.21.06-.43.06-.65c-.01-.05.03-.1.08-.11h2.59c.08 0 .12.03.13.08l3.65 10.3c.03.109 0 .16-.1.16m3.4-.15c0 .11-.039.16-.129.16H16.01c-.1 0-.15-.061-.15-.16v-7.7c0-.1.041-.14.131-.14h1.98c.09 0 .129.05.129.14zm-.209-9.03a1.18 1.18 0 0 1-.911.35c-.33.01-.65-.12-.891-.35a1.3 1.3 0 0 1-.34-.92c-.01-.34.12-.66.359-.89c.242-.23.562-.35.892-.35c.391 0 .689.12.91.35c.22.24.34.56.33.89c.01.34-.11.67-.349.92"/></g>
  <text x="60" y="226" font-family="Verdana,sans-serif" font-size="12" fill="white">Illustrator</text>

  <!-- Photoshop w=98 (full icon with Ps) -->
  <rect x="135" y="208" width="98" height="28" rx="4" fill="#31A8FF"/>
  <g transform="translate(143,214) scale(0.667)"><path fill="white" d="M9.85 8.42c-.37-.15-.77-.21-1.18-.2c-.26 0-.49 0-.68.01c-.2-.01-.34 0-.41.01v3.36c.14.01.27.02.39.02h.53c.39 0 .78-.06 1.15-.18c.32-.09.6-.28.82-.53c.21-.25.31-.59.31-1.03c.01-.31-.07-.62-.23-.89a1.45 1.45 0 0 0-.7-.57M19.75.3H4.25C1.9.3 0 2.2 0 4.55v14.899c0 2.35 1.9 4.25 4.25 4.25h15.5c2.35 0 4.25-1.9 4.25-4.25V4.55C24 2.2 22.1.3 19.75.3m-7.391 11.65c-.399.56-.959.98-1.609 1.22c-.68.25-1.43.34-2.25.34c-.24 0-.4 0-.5-.01s-.24-.01-.43-.01v3.209c.01.07-.04.131-.11.141H5.52c-.08 0-.12-.041-.12-.131V6.42c0-.07.03-.11.1-.11c.17 0 .33 0 .56-.01c.24-.01.49-.01.76-.02s.56-.01.87-.02s.61-.01.91-.01c.82 0 1.5.1 2.06.31c.5.17.96.45 1.34.82c.32.32.57.71.73 1.14c.149.42.229.85.229 1.3q.002 1.29-.6 2.13m7.091 3.89c-.28.4-.671.709-1.12.891c-.49.209-1.09.318-1.811.318c-.459 0-.91-.039-1.359-.129c-.35-.061-.7-.17-1.02-.32c-.07-.039-.121-.109-.111-.189v-1.74c0-.029.011-.07.041-.09c.029-.02.06-.01.09.01c.39.23.8.391 1.24.49c.379.1.779.15 1.18.15c.38 0 .65-.051.83-.141c.16-.07.27-.24.27-.42c0-.141-.08-.27-.24-.4c-.16-.129-.489-.279-.979-.471c-.51-.18-.979-.42-1.42-.719a2.6 2.6 0 0 1-.761-.85a2.16 2.16 0 0 1-.229-1.021c0-.43.12-.84.341-1.21c.25-.4.619-.72 1.049-.92c.469-.239 1.059-.349 1.769-.349c.41 0 .83.03 1.24.09c.3.04.59.12.86.23c.039.01.08.05.1.09c.01.04.02.08.02.12v1.63c0 .04-.02.08-.05.1c-.09.02-.14.02-.18 0c-.3-.16-.62-.27-.96-.34c-.37-.08-.74-.13-1.12-.13c-.2-.01-.41.02-.601.07c-.129.03-.24.1-.31.2c-.05.08-.08.18-.08.27s.04.18.101.26c.09.11.209.2.34.27c.229.12.47.23.709.33c.541.18 1.061.43 1.541.73c.33.209.6.49.789.83c.16.318.24.67.23 1.029c.011.471-.129.94-.389 1.331"/></g>
  <text x="165" y="226" font-family="Verdana,sans-serif" font-size="12" fill="white">Photoshop</text>

  <!-- Figma w=74 (full 5-piece logo) -->
  <rect x="241" y="208" width="74" height="28" rx="4" fill="#F24E1E"/>
  <g transform="translate(249,214) scale(0.667)"><path fill="white" d="M15.852 8.981h-4.588V0h4.588c2.476 0 4.49 2.014 4.49 4.49s-2.014 4.491-4.49 4.491M12.735 7.51h3.117c1.665 0 3.019-1.355 3.019-3.019s-1.355-3.019-3.019-3.019h-3.117zm0 1.471H8.148c-2.476 0-4.49-2.014-4.49-4.49S5.672 0 8.148 0h4.588v8.981zm-4.587-7.51c-1.665 0-3.019 1.355-3.019 3.019s1.354 3.02 3.019 3.02h3.117V1.471zm4.587 15.019H8.148c-2.476 0-4.49-2.014-4.49-4.49s2.014-4.49 4.49-4.49h4.588v8.98zM8.148 8.981c-1.665 0-3.019 1.355-3.019 3.019s1.355 3.019 3.019 3.019h3.117V8.981zM8.172 24c-2.489 0-4.515-2.014-4.515-4.49s2.014-4.49 4.49-4.49h4.588v4.441c0 2.503-2.047 4.539-4.563 4.539m-.024-7.51a3.023 3.023 0 0 0-3.019 3.019c0 1.665 1.365 3.019 3.044 3.019c1.705 0 3.093-1.376 3.093-3.068v-2.97zm7.704 0h-.098c-2.476 0-4.49-2.014-4.49-4.49s2.014-4.49 4.49-4.49h.098c2.476 0 4.49 2.014 4.49 4.49s-2.014 4.49-4.49 4.49m-.097-7.509c-1.665 0-3.019 1.355-3.019 3.019s1.355 3.019 3.019 3.019h.098c1.665 0 3.019-1.355 3.019-3.019s-1.355-3.019-3.019-3.019z"/></g>
  <text x="271" y="226" font-family="Verdana,sans-serif" font-size="12" fill="white">Figma</text>

  <!-- ══ DEVOPS & TOOLS ══ -->
  <text x="30" y="260" font-family="Consolas,Monaco,'Courier New',monospace" font-size="12" fill="#05D9FF" font-weight="bold">DevOps &amp; Tools</text>

  <!-- Git w=55 -->
  <rect x="30" y="272" width="55" height="28" rx="4" fill="#F05032"/>
  <g transform="translate(38,278) scale(0.667)"><path fill="white" d="M23.546 10.93L13.067.452a1.55 1.55 0 0 0-2.188 0L8.708 2.627l2.76 2.76a1.838 1.838 0 0 1 2.327 2.341l2.658 2.66a1.838 1.838 0 0 1 1.9 3.039a1.837 1.837 0 0 1-2.6 0a1.85 1.85 0 0 1-.404-1.996L12.86 8.955v6.525c.176.086.342.203.488.348a1.85 1.85 0 0 1 0 2.6a1.844 1.844 0 0 1-2.609 0a1.834 1.834 0 0 1 0-2.598c.182-.18.387-.316.605-.406V8.835a1.834 1.834 0 0 1-.996-2.41L7.636 3.7L.45 10.881c-.6.605-.6 1.584 0 2.189l10.48 10.477a1.545 1.545 0 0 0 2.186 0l10.43-10.43a1.544 1.544 0 0 0 0-2.187"/></g>
  <text x="60" y="290" font-family="Verdana,sans-serif" font-size="12" fill="white">Git</text>

  <!-- GitHub w=77 -->
  <rect x="93" y="272" width="77" height="28" rx="4" fill="#181717"/>
  <g transform="translate(101,278) scale(0.667)"><path fill="white" d="M12 .297c-6.63 0-12 5.373-12 12c0 5.303 3.438 9.8 8.205 11.385c.6.113.82-.258.82-.577c0-.285-.01-1.04-.015-2.04c-3.338.724-4.042-1.61-4.042-1.61C4.422 18.07 3.633 17.7 3.633 17.7c-1.087-.744.084-.729.084-.729c1.205.084 1.838 1.236 1.838 1.236c1.07 1.835 2.809 1.305 3.495.998c.108-.776.417-1.305.76-1.605c-2.665-.3-5.466-1.332-5.466-5.93c0-1.31.465-2.38 1.235-3.22c-.135-.303-.54-1.523.105-3.176c0 0 1.005-.322 3.3 1.23c.96-.267 1.98-.399 3-.405c1.02.006 2.04.138 3 .405c2.28-1.552 3.285-1.23 3.285-1.23c.645 1.653.24 2.873.12 3.176c.765.84 1.23 1.91 1.23 3.22c0 4.61-2.805 5.625-5.475 5.92c.42.36.81 1.096.81 2.22c0 1.606-.015 2.896-.015 3.286c0 .315.21.69.825.57C20.565 22.092 24 17.592 24 12.297c0-6.627-5.373-12-12-12"/></g>
  <text x="123" y="290" font-family="Verdana,sans-serif" font-size="12" fill="white">GitHub</text>

  <!-- GitLab w=77 -->
  <rect x="178" y="272" width="77" height="28" rx="4" fill="#FC6D26"/>
  <g transform="translate(186,278) scale(0.667)"><path fill="white" d="m23.6 9.593l-.033-.086L20.3.98a.85.85 0 0 0-.336-.405a.875.875 0 0 0-1 .054a.9.9 0 0 0-.29.44L16.47 7.818H7.537L5.333 1.07a.86.86 0 0 0-.29-.441a.875.875 0 0 0-1-.054a.86.86 0 0 0-.336.405L.433 9.502l-.032.086a6.066 6.066 0 0 0 2.012 7.01l.01.009l.03.021l4.977 3.727l2.462 1.863l1.5 1.132a1.01 1.01 0 0 0 1.22 0l1.499-1.132l2.461-1.863l5.006-3.75l.013-.01a6.07 6.07 0 0 0 2.01-7.002"/></g>
  <text x="208" y="290" font-family="Verdana,sans-serif" font-size="12" fill="white">GitLab</text>

  <!-- Docker w=79 -->
  <rect x="263" y="272" width="79" height="28" rx="4" fill="#2496ED"/>
  <g transform="translate(271,278) scale(0.667)"><path fill="white" d="M13.983 11.078h2.119a.186.186 0 0 0 .186-.185V9.006a.186.186 0 0 0-.186-.186h-2.119a.185.185 0 0 0-.185.185v1.888c0 .102.083.185.185.185m-2.954-5.43h2.118a.186.186 0 0 0 .186-.186V3.574a.186.186 0 0 0-.186-.185h-2.118a.185.185 0 0 0-.185.185v1.888c0 .102.082.185.185.185m0 2.716h2.118a.187.187 0 0 0 .186-.186V6.29a.186.186 0 0 0-.186-.185h-2.118a.185.185 0 0 0-.185.185v1.887c0 .102.082.185.185.186m-2.93 0h2.12a.186.186 0 0 0 .184-.186V6.29a.185.185 0 0 0-.185-.185H8.1a.185.185 0 0 0-.185.185v1.887c0 .102.083.185.185.186m-2.964 0h2.119a.186.186 0 0 0 .185-.186V6.29a.185.185 0 0 0-.185-.185H5.136a.186.186 0 0 0-.186.185v1.887c0 .102.084.185.186.186m5.893 2.715h2.118a.186.186 0 0 0 .186-.186V9.006a.186.186 0 0 0-.186-.186h-2.118a.185.185 0 0 0-.185.185v1.888c0 .102.082.185.185.185m-2.93 0h2.12a.185.185 0 0 0 .184-.186V9.006a.185.185 0 0 0-.184-.186h-2.12a.185.185 0 0 0-.184.185v1.888c0 .102.083.185.185.185m-2.964 0h2.119a.186.186 0 0 0 .185-.186V9.006a.186.186 0 0 0-.185-.186H5.136a.186.186 0 0 0-.186.185v1.888c0 .102.084.185.186.185m-2.92 0h2.12a.185.185 0 0 0 .184-.186V9.006a.185.185 0 0 0-.184-.186h-2.12a.186.186 0 0 0-.185.185v1.888c0 .102.084.185.185.185M23.763 9.89c-.065-.051-.672-.51-1.954-.51c-.338.001-.676.03-1.01.087c-.248-1.7-1.653-2.53-1.716-2.566l-.344-.199l-.226.327c-.284.438-.49.922-.612 1.43c-.23.97-.09 1.882.403 2.661c-.595.332-1.55.413-1.744.42H.751a.751.751 0 0 0-.75.748c-.03 1.384.17 2.765.601 4.083c.493 1.42 1.225 2.471 2.176 3.123c1.06.726 2.794 1.14 4.77 1.14c.89 0 1.782-.085 2.656-.256a12 12 0 0 0 3.093-1.16a9.7 9.7 0 0 0 2.333-1.846c1.164-1.273 1.86-2.695 2.395-3.907c.073 0 .145 0 .217-.002c1.346 0 2.173-.538 2.628-.987c.303-.3.527-.665.654-1.07l.091-.302z"/></g>
  <text x="293" y="290" font-family="Verdana,sans-serif" font-size="12" fill="white">Docker</text>

  <!-- Linux w=71 (devicon Tux 128x128) -->
  <rect x="350" y="272" width="71" height="28" rx="4" fill="#FCC624"/>
  <g transform="translate(358,278) scale(0.125)"><path fill="black" fill-rule="evenodd" d="M113.823 104.595c-1.795-1.478-3.629-2.921-5.308-4.525c-1.87-1.785-3.045-3.944-2.789-6.678c.147-1.573-.216-2.926-2.113-3.452c.446-1.154.864-1.928 1.033-2.753c.188-.92.178-1.887.204-2.834c.264-9.96-3.334-18.691-8.663-26.835c-2.454-3.748-5.017-7.429-7.633-11.066c-4.092-5.688-5.559-12.078-5.633-18.981a47.6 47.6 0 0 0-1.081-9.475C80.527 11.956 77.291 7.233 71.422 4.7c-4.497-1.942-9.152-2.327-13.901-1.084c-6.901 1.805-11.074 6.934-10.996 14.088c.074 6.885.417 13.779.922 20.648c.288 3.893-.312 7.252-2.895 10.34c-2.484 2.969-4.706 6.172-6.858 9.397c-1.229 1.844-2.317 3.853-3.077 5.931c-2.07 5.663-3.973 11.373-7.276 16.5c-1.224 1.9-1.363 4.026-.494 6.199c.225.563.363 1.429.089 1.882c-2.354 3.907-5.011 7.345-10.066 8.095c-3.976.591-4.172 1.314-4.051 5.413c.1 3.337.061 6.705-.28 10.021c-.363 3.555.008 4.521 3.442 5.373c7.924 1.968 15.913 3.647 23.492 6.854c3.227 1.365 6.465.891 9.064-1.763c2.713-2.771 6.141-3.855 9.844-3.859c6.285-.005 12.572.298 18.86.369c1.702.02 2.679.653 3.364 2.199c.84 1.893 2.26 3.284 4.445 3.526c4.193.462 8.013-.16 11.19-3.359c3.918-3.948 8.436-7.066 13.615-9.227c1.482-.619 2.878-1.592 4.103-2.648c2.231-1.922 2.113-3.146-.135-5M62.426 24.12c.758-2.601 2.537-4.289 5.243-4.801c2.276-.43 4.203.688 5.639 3.246c1.546 2.758 2.054 5.64.734 8.658c-1.083 2.474-1.591 2.707-4.123 1.868c-.474-.157-.937-.343-1.777-.652c.708-.594 1.154-1.035 1.664-1.382c1.134-.772 1.452-1.858 1.346-3.148c-.139-1.694-1.471-3.194-2.837-3.175c-1.225.017-2.262 1.167-2.4 2.915c-.086 1.089.095 2.199.173 3.589c-3.446-1.023-4.711-3.525-3.662-7.118m-12.75-2.251c1.274-1.928 3.197-2.314 5.101-1.024c2.029 1.376 3.547 5.256 2.763 7.576c-.285.844-1.127 1.5-1.716 2.241l-.604-.374c-.23-1.253-.276-2.585-.757-3.733c-.304-.728-1.257-1.184-1.919-1.762c-.622.739-1.693 1.443-1.757 2.228c-.088 1.084.477 2.28.969 3.331c.311.661 1.001 1.145 1.713 1.916l-1.922 1.51c-3.018-2.7-3.915-8.82-1.871-11.909M87.34 86.075c-.203 2.604-.5 2.713-3.118 3.098c-1.859.272-2.359.756-2.453 2.964a102 102 0 0 0-.012 7.753c.061 1.77-.537 3.158-1.755 4.393c-6.764 6.856-14.845 10.105-24.512 8.926c-4.17-.509-6.896-3.047-9.097-6.639c.98-.363 1.705-.607 2.412-.894c3.122-1.27 3.706-3.955 1.213-6.277c-1.884-1.757-3.986-3.283-6.007-4.892c-1.954-1.555-3.934-3.078-5.891-4.629c-1.668-1.323-2.305-3.028-2.345-5.188c-.094-5.182.972-10.03 3.138-14.747c1.932-4.209 3.429-8.617 5.239-12.885c.935-2.202 1.906-4.455 3.278-6.388c1.319-1.854 2.134-3.669 1.988-5.94c-.084-1.276-.016-2.562-.016-3.843l.707-.352c1.141.985 2.302 1.949 3.423 2.959c4.045 3.646 7.892 3.813 12.319.67c1.888-1.341 3.93-2.47 5.927-3.652c.497-.294 1.092-.423 1.934-.738c2.151 5.066 4.262 10.033 6.375 15c1.072 2.524 1.932 5.167 3.264 7.547c2.671 4.775 4.092 9.813 4.07 15.272c-.012 2.83.137 5.67-.081 8.482" clip-rule="evenodd"/></g>
  <text x="380" y="290" font-family="Verdana,sans-serif" font-size="12" fill="black">Linux</text>

  <!-- macOS w=78 -->
  <rect x="429" y="272" width="78" height="28" rx="4" fill="#000000"/>
  <g transform="translate(437,278) scale(0.667)"><path fill="white" d="M12.152 6.896c-.948 0-2.415-1.078-3.96-1.04c-2.04.027-3.91 1.183-4.961 3.014c-2.117 3.675-.546 9.103 1.519 12.09c1.013 1.454 2.208 3.09 3.792 3.039c1.52-.065 2.09-.987 3.935-.987c1.831 0 2.35.987 3.96.948c1.637-.026 2.676-1.48 3.676-2.948c1.156-1.688 1.636-3.325 1.662-3.415c-.039-.013-3.182-1.221-3.22-4.857c-.026-3.04 2.48-4.494 2.597-4.559c-1.429-2.09-3.623-2.324-4.39-2.376c-2-.156-3.675 1.09-4.61 1.09zM15.53 3.83c.843-1.012 1.4-2.427 1.245-3.83c-1.207.052-2.662.805-3.532 1.818c-.78.896-1.454 2.338-1.273 3.714c1.338.104 2.715-.688 3.559-1.701"/></g>
  <text x="459" y="290" font-family="Verdana,sans-serif" font-size="12" fill="white">macOS</text>

  <!-- Windows w=90 -->
  <rect x="515" y="272" width="90" height="28" rx="4" fill="#0078D4"/>
  <g transform="translate(523,278) scale(0.667)"><path fill="white" d="M0 0h11.377v11.372H0Zm12.623 0H24v11.372H12.623ZM0 12.623h11.377V24H0Zm12.623 0H24V24H12.623"/></g>
  <text x="545" y="290" font-family="Verdana,sans-serif" font-size="12" fill="white">Windows</text>
</svg>
